<svg xmlns="http://www.w3.org/2000/svg" width="960" height="560"><path d="M274.8 421.9c0 46.4-13.6 81.4-40.9 105.1-20.6 18-43.9 27.1-69.8 27.1v-25l-.2-25.3c12.6-.3 24-4.4 34.1-12.3 17.7-13.8 26.6-37 26.6-69.6v-37.3c-16.7 10.5-35.5 15.7-56.4 15.7-29.4 0-54.5-10.5-75.3-31.4-21.1-20.9-31.6-46.1-31.6-75.5 0-29.6 10.5-54.7 31.6-75.5 20.8-21.1 45.9-31.6 75.3-31.6 29.6 0 54.8 10.5 75.8 31.6 20.6 20.8 30.9 46 30.9 75.5v128.5zm114.4-164.7h36.9v51.2h-36.9v91.9H339v-91.9h-36.9v-51.2H339v-96c0-46.7 13.7-82 40.9-105.8 20.8-18 44.2-27.1 70.3-27.1v25.3l.2 25.3c-12.7.2-24.2 4.2-34.4 12.3-17.9 14-26.8 37.3-26.8 70.1v95.9zm234.6 127.1c-16.7 10.6-35.6 15.9-56.6 15.9-29.4 0-54.5-10.5-75.3-31.4-21.1-20.9-31.6-46.1-31.6-75.5s10.5-54.5 31.6-75.3c20.8-21.1 45.9-31.6 75.3-31.6 29.6 0 54.8 10.5 75.8 31.6 20.9 20.8 31.4 45.9 31.4 75.3v106.9h-50.5v-15.9zm234.1-63.9l41 30.7c-4.1 6.2-9 12.1-14.6 17.7-20.9 20.9-46.2 31.4-75.8 31.4-29.4 0-54.5-10.5-75.3-31.4-21.1-20.9-31.6-46.1-31.6-75.5s10.5-54.5 31.6-75.3c20.8-21.1 45.9-31.6 75.3-31.6 29.6 0 54.8 10.5 75.8 31.6 5.6 5.5 10.5 11.3 14.6 17.5l-41 30.7c-2.6-4.4-5.8-8.6-9.6-12.5-11.1-10.9-24.3-16.4-39.8-16.4-15.3 0-28.5 5.5-39.6 16.4-10.8 11.1-16.2 24.3-16.2 39.6s5.4 28.5 16.2 39.6c11.1 10.9 24.3 16.4 39.6 16.4 15.5 0 28.7-5.5 39.8-16.4 4-3.9 7.1-8.1 9.6-12.5z" fill="#77b240"/></svg>