<?xml version="1.0" encoding="utf-8"?>
<!-- Generator: Adobe Illustrator 16.0.0, SVG Export Plug-In . SVG Version: 6.00 Build 0)  -->
<!DOCTYPE svg PUBLIC "-//W3C//DTD SVG 1.1//EN" "http://www.w3.org/Graphics/SVG/1.1/DTD/svg11.dtd">
<svg version="1.1" id="Layer_1" xmlns="http://www.w3.org/2000/svg" xmlns:xlink="http://www.w3.org/1999/xlink" x="0px" y="0px"
	 width="960px" height="560px" viewBox="0 0 960 560" style="enable-background:new 0 0 960 560;" xml:space="preserve">
<style type="text/css">
<![CDATA[
	.st0{fill:#77B240;}
]]>
</style>
<g>
	<path class="st0" d="M274.8,421.9c0,46.4-13.6,81.4-40.9,105.1c-20.6,18-43.9,27.1-69.8,27.1v-25l-0.2-25.3
		c12.6-0.3,24-4.4,34.1-12.3c17.7-13.8,26.6-37,26.6-69.6v-37.3c-16.7,10.5-35.5,15.7-56.4,15.7c-29.4,0-54.5-10.5-75.3-31.4
		c-21.1-20.9-31.6-46.1-31.6-75.5c0-29.6,10.5-54.7,31.6-75.5c20.8-21.1,45.9-31.6,75.3-31.6c29.6,0,54.8,10.5,75.8,31.6
		c20.6,20.8,30.9,46,30.9,75.5V421.9z"/>
	<path class="st0" d="M389.2,257.2h36.9v51.2h-36.9v91.9H339v-91.9h-36.9v-51.2H339v-96c0-46.7,13.7-82,40.9-105.8
		c20.8-18,44.2-27.1,70.3-27.1v25.3l0.2,25.3c-12.7,0.2-24.2,4.2-34.4,12.3c-17.9,14-26.8,37.3-26.8,70.1V257.2z"/>
	<path class="st0" d="M623.8,384.3c-16.7,10.6-35.6,15.9-56.6,15.9c-29.4,0-54.5-10.5-75.3-31.4c-21.1-20.9-31.6-46.1-31.6-75.5
		c0-29.4,10.5-54.5,31.6-75.3c20.8-21.1,45.9-31.6,75.3-31.6c29.6,0,54.8,10.5,75.8,31.6c20.9,20.8,31.4,45.9,31.4,75.3v106.9h-50.5
		V384.3z"/>
	<path class="st0" d="M857.9,320.4l41,30.7c-4.1,6.2-9,12.1-14.6,17.7c-20.9,20.9-46.2,31.4-75.8,31.4c-29.4,0-54.5-10.5-75.3-31.4
		c-21.1-20.9-31.6-46.1-31.6-75.5c0-29.4,10.5-54.5,31.6-75.3c20.8-21.1,45.9-31.6,75.3-31.6c29.6,0,54.8,10.5,75.8,31.6
		c5.6,5.5,10.5,11.3,14.6,17.5l-41,30.7c-2.6-4.4-5.8-8.6-9.6-12.5c-11.1-10.9-24.3-16.4-39.8-16.4c-15.3,0-28.5,5.5-39.6,16.4
		c-10.8,11.1-16.2,24.3-16.2,39.6c0,15.3,5.4,28.5,16.2,39.6c11.1,10.9,24.3,16.4,39.6,16.4c15.5,0,28.7-5.5,39.8-16.4
		C852.3,329,855.4,324.8,857.9,320.4z"/>
</g>
</svg>
