<?xml version="1.0" standalone="no"?>
<!DOCTYPE svg PUBLIC "-//W3C//DTD SVG 20010904//EN"
 "http://www.w3.org/TR/2001/REC-SVG-20010904/DTD/svg10.dtd">
<svg version="1.0" xmlns="http://www.w3.org/2000/svg"
 width="842.000000pt" height="842.000000pt" viewBox="0 0 842.000000 842.000000"
 preserveAspectRatio="xMidYMid meet">
<metadata>
Created by potrace 1.11, written by Peter Selinger 2001-2013
</metadata>
<g transform="translate(0.000000,842.000000) scale(0.100000,-0.100000)"
fill="#000000" stroke="none">
<path d="M3939 8286 c-2 -2 -35 -6 -72 -10 -71 -7 -124 -14 -167 -22 -14 -3
-32 -6 -40 -8 -51 -8 -98 -19 -120 -26 -14 -5 -36 -11 -50 -14 -60 -10 -247
-79 -343 -127 -22 -10 -45 -19 -52 -19 -7 0 -15 -3 -17 -7 -1 -5 -21 -17 -43
-28 -129 -65 -324 -201 -449 -315 -89 -80 -252 -250 -308 -320 -33 -41 -67
-84 -76 -95 -85 -104 -198 -306 -284 -505 -36 -81 -92 -271 -114 -385 -2 -11
-7 -33 -10 -50 -4 -16 -8 -41 -10 -55 -1 -14 -5 -45 -9 -70 -22 -172 -22 -565
0 -640 2 -8 7 -37 10 -65 22 -169 93 -411 177 -595 12 -25 19 -46 17 -46 -2
-1 3 -10 11 -20 9 -11 29 -44 45 -74 33 -64 170 -273 200 -306 5 -6 22 -27 37
-46 79 -101 270 -292 378 -378 24 -19 48 -40 54 -45 17 -16 203 -145 209 -145
4 0 23 -11 43 -25 33 -23 82 -47 263 -134 25 -11 52 -21 61 -21 9 0 20 -4 26
-9 5 -6 49 -21 97 -35 49 -14 92 -28 96 -30 4 -3 22 -8 39 -11 18 -3 63 -12
100 -19 290 -61 673 -65 942 -11 14 3 39 8 55 11 98 17 335 89 397 121 15 7
30 13 33 13 9 -1 186 86 252 124 34 19 64 32 66 28 6 -12 0 -1002 -7 -1077
-14 -160 -21 -210 -47 -345 -20 -101 -80 -307 -99 -342 -6 -10 -10 -25 -10
-33 0 -8 -4 -15 -10 -15 -5 0 -10 -6 -10 -13 0 -21 -79 -166 -134 -247 -69
-101 -194 -231 -291 -302 -44 -32 -84 -62 -90 -66 -24 -19 -180 -95 -241 -118
-116 -43 -277 -75 -386 -75 -9 0 -18 -8 -20 -17 -7 -27 -1 -520 6 -548 4 -14
3 -23 -2 -20 -8 5 -6 -77 3 -101 2 -7 1 -13 -3 -13 -8 0 -6 -84 3 -107 2 -7 1
-13 -4 -13 -5 0 -5 -18 -1 -40 4 -22 4 -42 0 -45 -4 -2 -6 -17 -4 -32 5 -38 7
-86 4 -98 -1 -5 -2 -27 -1 -47 l1 -38 128 6 c70 4 142 7 159 8 18 0 33 3 33 7
0 3 10 5 23 5 34 1 107 15 202 39 33 9 65 17 70 18 6 1 16 6 23 10 6 5 12 6
12 3 0 -3 46 11 103 30 115 40 427 191 427 207 0 6 3 8 6 4 3 -3 11 -2 18 4 6
5 43 30 81 56 39 25 72 49 75 52 3 3 21 17 40 31 19 13 40 28 45 32 166 135
302 268 400 393 22 28 42 52 45 55 12 12 140 200 140 206 0 2 12 23 27 47 71
112 188 377 232 527 13 41 25 82 28 90 17 43 46 161 58 235 2 11 4 20 5 20 2
0 4 9 6 20 1 11 5 30 7 41 3 12 8 37 10 55 18 115 28 189 31 224 3 22 5 40 6
40 0 0 3 34 6 75 2 41 6 111 9 155 7 117 8 3082 1 3094 -4 5 -2 12 2 15 5 3 8
18 6 33 -1 15 -5 69 -9 121 -5 85 -10 138 -20 197 -2 11 -6 43 -10 70 -15 115
-88 367 -144 498 -11 26 -21 49 -21 52 -1 8 -80 156 -120 225 -34 58 -164 247
-179 260 -3 3 -31 34 -61 70 -54 64 -180 192 -256 260 -33 30 -64 55 -169 138
-39 31 -223 146 -285 179 -87 45 -228 109 -265 119 -5 1 -34 12 -63 23 -29 11
-55 20 -57 20 -3 1 -6 1 -7 2 -2 0 -10 2 -18 4 -8 2 -51 13 -95 24 -44 11 -96
23 -115 26 -20 3 -47 8 -60 10 -34 7 -77 14 -130 21 -50 6 -475 15 -481 10z"/>
</g>
</svg>
